<?xml version="1.0" standalone="no"?>
<!DOCTYPE svg PUBLIC "-//W3C//DTD SVG 1.1//EN" "http://www.w3.org/Graphics/SVG/1.1/DTD/svg11.dtd" >
<svg xmlns="http://www.w3.org/2000/svg" xmlns:xlink="http://www.w3.org/1999/xlink" version="1.1">
<metadata></metadata>
<defs>
<font id="bjorkregular" horiz-adv-x="1134" >
<font-face units-per-em="2048" ascent="1638" descent="-410" />
<missing-glyph horiz-adv-x="1024" />
<glyph horiz-adv-x="0" />
<glyph unicode="&#xd;" horiz-adv-x="1024" />
<glyph unicode=" "  horiz-adv-x="1024" />
<glyph unicode="&#x09;" horiz-adv-x="1024" />
<glyph unicode="&#xa0;" horiz-adv-x="1024" />
<glyph unicode="A" horiz-adv-x="1259" d="M0 0l330 410l22 18l29 31l31 26l30 19l31 20l37 13l43 12l1059 -4l-455 -545h-381l322 383h-412l-57 -70h301l-262 -313h-668zM0 0zM0 0zM629 313l57 70zM668 0l262 313zM1098 383zM1157 0z" />
<glyph unicode="B" horiz-adv-x="1249" d="M-178 1118h252l432 -512l31 35l-314 373h326l340 -408l-232 -293h365l65 70h-278l135 162h668l-330 -410l-22 -18l-29 -31l-31 -27l-31 -18l-30 -18l-39 -15l-41 -12l-1059 4l377 451zM-178 1118l555 -667zM74 1118zM74 1118l432 -512zM223 1014zM223 1014l314 -373z M506 606zM549 1014l340 -408zM657 313zM1612 545zM1612 545z" />
<glyph unicode="C" horiz-adv-x="964" d="M68 57l4 27l348 416l35 24l41 13l45 10h774l-205 -248l-346 2l76 90h-129l-195 -231l129 -2l74 90h356l-211 -248h-727l-28 8l-33 29zM516 160zM711 391z" />
<glyph unicode="D" horiz-adv-x="1263" d="M70 53l6 -20l12 -21l18 -12h1055l873 1044h-435l-608 -735h-364l57 70h270l150 166h-651l-367 -432l-14 -35zM627 309l57 70zM991 309zM991 309z" />
<glyph unicode="E" horiz-adv-x="1267" d="M68 57l4 27l348 416l35 24l41 13l45 10h983l22 -10l17 -15v-26l-4 -19l-9 -16l-18 -27l-19 -26l-16 -23l-154 -180h-659l117 137h268l59 70h-364l-236 -279l754 2l-27 -24l-24 -25l-31 -27l-31 -18l-36 -21l-33 -12l-41 -12l-922 4l-28 8l-33 29zM684 205zM684 205z M684 205l117 137zM1069 342l59 70zM1343 205zM1343 205z" />
<glyph unicode="F" horiz-adv-x="772" d="M0 0l657 793h977l-121 -146l-614 2l-90 -106h326l-181 -209l181 209l-181 -209h-338l-249 -334h-367zM367 0l249 334l193 209zM367 0zM367 0zM367 0zM616 334zM809 543l90 106zM954 334zM954 334l181 209zM1135 543zM1513 647zM1513 647l121 146z" />
<glyph unicode="G" horiz-adv-x="1257" d="M-395 -377l1239 2l768 920l-1059 4l-43 -12l-37 -13l-31 -20l-30 -19l-31 -26l-29 -31l-22 -18l-23 -25l-307 -385h668l262 313h-301l57 70h412l-375 -442l-657 2l-99 -9l-76 -26l-86 -41l-57 -45l-61 -62l-54 -67zM0 0zM0 0zM629 313l57 70zM668 0l262 313zM723 -59z M723 -59l375 442z" />
<glyph unicode="H" d="M-178 1118l555 -667l-377 -451h381l508 606l-340 408h-326l314 -373l-31 -35l-432 512h-252zM-178 1118l555 -667zM74 1118zM74 1118l432 -512zM223 1014zM223 1014l314 -373zM287 293l338 6l75 90h129l-337 -389h542l355 432l8 43l-11 31l-26 26l-43 11h-813zM287 293z M492 0l337 389zM504 543zM506 606zM549 1014l340 -408zM625 299l75 90zM1034 0z" />
<glyph unicode="I" horiz-adv-x="544" d="M0 0h444l461 547l-446 2zM504 604l112 133h392l-17 -30l-30 -39l-31 -27l-39 -25l-31 -12h-356zM905 547z" />
<glyph unicode="J" horiz-adv-x="888" d="M-844 -356h1297l761 903l-759 -2l-179 -211l314 -2l-316 -373l-657 2l-98 -8l-76 -27l-86 -41l-57 -45l-62 -61l-53 -68zM455 545zM813 604l113 133h391l-17 -30l-30 -39l-31 -27l-39 -25l-31 -12h-356zM1214 547z" />
<glyph unicode="K" horiz-adv-x="1286" d="M0 0l516 606h-328l115 133h668l-353 -415h62l608 725h285l-635 -762l55 -8l49 -41l449 -545h-363l-61 24l-76 35l-71 62l-154 186h-766zM0 0l516 606zM188 606l115 133zM618 324zM938 287l635 762zM971 739zM1042 238zM1042 238l449 -545z" />
<glyph unicode="L" horiz-adv-x="552" d="M0 0l766 913h-328l113 134h778l-878 -1047h-451zM0 0zM451 0zM551 1047zM551 1047zM1329 1047z" />
<glyph unicode="M" horiz-adv-x="1789" d="M0 0h516l328 391h651l-324 -391h517l366 434l8 43l-10 31l-27 27l-43 10l-495 -2l-875 2l-61 -10l-70 -27l-61 -31l-60 -43zM653 0h381l453 543h-385zM653 0l449 543zM1688 0z" />
<glyph unicode="N" d="M0 0h381l332 391zM0 0h381l332 391h129l-324 -391h516l367 434l8 43l-10 31l-27 27l-43 10h-874zM842 391zM1034 0z" />
<glyph unicode="O" horiz-adv-x="1026" d="M113 133l73 92l228 275l49 30l59 15h357l-152 -139l-203 -244h129l-116 -162q0 1 -76 1t-228 -1l-24 6l-35 14l-33 25l-22 35zM350 0l303 162l201 244h-127l152 139h297l55 -21l29 -37l10 -47l-15 -43l-284 -340l-45 -37l-43 -16l-52 -4h-481z" />
<glyph unicode="P" horiz-adv-x="1265" d="M-309 -356h434l616 739h365l-59 -70h-271l-262 -315h651l394 479l4 19v26l-17 15l-22 10l-1065 -2zM459 545zM741 383zM741 383zM1047 313l59 70z" />
<glyph unicode="Q" horiz-adv-x="1251" d="M0 0l330 410l22 18l29 31l31 26l30 19l31 20l37 13l43 12l1059 -4l-461 -545l696 -842h-252l-571 686l-31 -34l420 -508h-323l-451 542l459 539h-412l-57 -70h301l-262 -313h-668zM0 0zM0 0zM629 313l57 70zM639 -156l451 -542zM639 -156l459 539zM668 0l262 313z M993 -190l420 -508zM1024 -156zM1024 -156l571 -686zM1151 0l696 -842zM1151 0zM1413 -698zM1595 -842z" />
<glyph unicode="R" horiz-adv-x="952" d="M0 0l389 463l66 55l41 19l45 10h774l-205 -248l-332 2l76 88h-129l-319 -385zM0 0l389 463zM406 4l319 385zM778 301l76 88zM1110 299zM1315 547z" />
<glyph unicode="S" horiz-adv-x="1275" d="M29 23l18 -15l31 -8h981l41 10l39 15l47 26l26 19l21 16l27 27l26 24l23 25l151 178h-659l-117 -137h268l-59 -68h-365l-409 -2l-84 -86zM162 199h659l117 137h-268l57 70h365l407 2l88 86l6 24l-20 12l-29 11h-981l-41 -13l-39 -12l-47 -27l-26 -18l-21 -16l-27 -27 l-26 -27l-23 -22zM162 199zM162 199zM670 336l57 70zM684 203l117 137zM801 340zM801 340zM821 199zM821 199zM821 199l117 137zM893 135l59 68zM1309 162zM1460 340zM1460 340z" />
<glyph unicode="T" horiz-adv-x="1177" d="M287 334zM287 334l178 209h1071l-178 -211l-326 -4zM324 0zM324 0l276 330l432 -2l-274 -328h-434zM324 0zM465 543zM758 0zM1223 545zM1358 332zM1358 332z" />
<glyph unicode="U" horiz-adv-x="1140" d="M88 68l10 -31l27 -27l43 -10h874l455 545h-381l-332 -391h-129l324 391h-516l-367 -434zM463 545zM655 154zM784 154l713 391h-381z" />
<glyph unicode="V" horiz-adv-x="1112" d="M291 348l289 -348h430l458 543h-389l-299 -353l-73 89l219 264l-473 2zM1010 0l458 543z" />
<glyph unicode="W" horiz-adv-x="1794" d="M80 66l10 -31l27 -27l43 -10l495 2l961 -2l49 18l55 35l62 58l360 434h-516l-328 -391h-651l324 391h-516l-367 -434zM455 543zM655 0h385l449 543h-381zM1040 0l449 543zM2142 543zM2142 543z" />
<glyph unicode="X" horiz-adv-x="1202" d="M0 0l391 463l-225 272h332l229 -270l498 584h284l-635 -762l56 -8l49 -41l440 -547l-291 2l-61 24l-76 35l-71 62l-154 186h-766zM0 0l391 463zM391 463l375 -463zM727 465zM874 287l635 762zM979 238zM979 238l440 -547z" />
<glyph unicode="Y" horiz-adv-x="792" d="M-891 -377h1266l944 1114h-295l-344 -413l-78 -2l344 415h-647l-111 -131h328l-516 -606h410l-58 -61l-782 2zM-891 -377l29 68l53 67l61 62l58 45l86 41l76 26l98 9zM692 0z" />
<glyph unicode="Z" horiz-adv-x="1005" d="M0 0l516 606h-328l115 133h891l-420 -469h328l-197 -270h-905zM0 0zM0 0l516 606zM188 606l115 133zM774 270zM905 0zM905 0zM1102 270zM1194 739z" />
<glyph unicode="a" horiz-adv-x="1259" d="M0 0l330 410l22 18l29 31l31 26l30 19l31 20l37 13l43 12l1059 -4l-455 -545h-381l322 383h-412l-57 -70h301l-262 -313h-668zM0 0zM0 0zM629 313l57 70zM668 0l262 313zM1098 383zM1157 0z" />
<glyph unicode="b" horiz-adv-x="1249" d="M-178 1118h252l432 -512l31 35l-314 373h326l340 -408l-232 -293h365l65 70h-278l135 162h668l-330 -410l-22 -18l-29 -31l-31 -27l-31 -18l-30 -18l-39 -15l-41 -12l-1059 4l377 451zM-178 1118l555 -667zM74 1118zM74 1118l432 -512zM223 1014zM223 1014l314 -373z M506 606zM549 1014l340 -408zM657 313zM1612 545zM1612 545z" />
<glyph unicode="c" horiz-adv-x="964" d="M68 57l4 27l348 416l35 24l41 13l45 10h774l-205 -248l-346 2l76 90h-129l-195 -231l129 -2l74 90h356l-211 -248h-727l-28 8l-33 29zM516 160zM711 391z" />
<glyph unicode="d" horiz-adv-x="1263" d="M70 53l6 -20l12 -21l18 -12h1055l873 1044h-435l-608 -735h-364l57 70h270l150 166h-651l-367 -432l-14 -35zM627 309l57 70zM991 309zM991 309z" />
<glyph unicode="e" horiz-adv-x="1267" d="M68 57l4 27l348 416l35 24l41 13l45 10h983l22 -10l17 -15v-26l-4 -19l-9 -16l-18 -27l-19 -26l-16 -23l-154 -180h-659l117 137h268l59 70h-364l-236 -279l754 2l-27 -24l-24 -25l-31 -27l-31 -18l-36 -21l-33 -12l-41 -12l-922 4l-28 8l-33 29zM684 205zM684 205z M684 205l117 137zM1069 342l59 70zM1343 205zM1343 205z" />
<glyph unicode="f" horiz-adv-x="772" d="M0 0l657 793h977l-121 -146l-614 2l-90 -106h326l-181 -209l181 209l-181 -209h-338l-249 -334h-367zM367 0l249 334l193 209zM367 0zM367 0zM367 0zM616 334zM809 543l90 106zM954 334zM954 334l181 209zM1135 543zM1513 647zM1513 647l121 146z" />
<glyph unicode="g" horiz-adv-x="1257" d="M-395 -377l1239 2l768 920l-1059 4l-43 -12l-37 -13l-31 -20l-30 -19l-31 -26l-29 -31l-22 -18l-23 -25l-307 -385h668l262 313h-301l57 70h412l-375 -442l-657 2l-99 -9l-76 -26l-86 -41l-57 -45l-61 -62l-54 -67zM0 0zM0 0zM629 313l57 70zM668 0l262 313zM723 -59z M723 -59l375 442z" />
<glyph unicode="h" d="M-178 1118l555 -667l-377 -451h381l508 606l-340 408h-326l314 -373l-31 -35l-432 512h-252zM-178 1118l555 -667zM74 1118zM74 1118l432 -512zM223 1014zM223 1014l314 -373zM287 293l338 6l75 90h129l-337 -389h542l355 432l8 43l-11 31l-26 26l-43 11h-813zM287 293z M492 0l337 389zM504 543zM506 606zM549 1014l340 -408zM625 299l75 90zM1034 0z" />
<glyph unicode="i" horiz-adv-x="544" d="M0 0h444l461 547l-446 2zM504 604l112 133h392l-17 -30l-30 -39l-31 -27l-39 -25l-31 -12h-356zM905 547z" />
<glyph unicode="j" horiz-adv-x="888" d="M-844 -356h1297l761 903l-759 -2l-179 -211l314 -2l-316 -373l-657 2l-98 -8l-76 -27l-86 -41l-57 -45l-62 -61l-53 -68zM455 545zM813 604l113 133h391l-17 -30l-30 -39l-31 -27l-39 -25l-31 -12h-356zM1214 547z" />
<glyph unicode="k" horiz-adv-x="1286" d="M0 0l516 606h-328l115 133h668l-353 -415h62l608 725h285l-635 -762l55 -8l49 -41l449 -545h-363l-61 24l-76 35l-71 62l-154 186h-766zM0 0l516 606zM188 606l115 133zM618 324zM938 287l635 762zM971 739zM1042 238zM1042 238l449 -545z" />
<glyph unicode="l" horiz-adv-x="552" d="M0 0l766 913h-328l113 134h778l-878 -1047h-451zM0 0zM451 0zM551 1047zM551 1047zM1329 1047z" />
<glyph unicode="m" horiz-adv-x="1789" d="M0 0h516l328 391h651l-324 -391h517l366 434l8 43l-10 31l-27 27l-43 10l-495 -2l-875 2l-61 -10l-70 -27l-61 -31l-60 -43zM653 0h381l453 543h-385zM653 0l449 543zM1688 0z" />
<glyph unicode="n" d="M0 0h381l332 391zM0 0h381l332 391h129l-324 -391h516l367 434l8 43l-10 31l-27 27l-43 10h-874zM842 391zM1034 0z" />
<glyph unicode="o" horiz-adv-x="1026" d="M113 133l73 92l228 275l49 30l59 15h357l-152 -139l-203 -244h129l-116 -162q0 1 -76 1t-228 -1l-24 6l-35 14l-33 25l-22 35zM350 0l303 162l201 244h-127l152 139h297l55 -21l29 -37l10 -47l-15 -43l-284 -340l-45 -37l-43 -16l-52 -4h-481z" />
<glyph unicode="p" horiz-adv-x="1265" d="M-309 -356h434l616 739h365l-59 -70h-271l-262 -315h651l394 479l4 19v26l-17 15l-22 10l-1065 -2zM459 545zM741 383zM741 383zM1047 313l59 70z" />
<glyph unicode="q" horiz-adv-x="1251" d="M0 0l330 410l22 18l29 31l31 26l30 19l31 20l37 13l43 12l1059 -4l-461 -545l696 -842h-252l-571 686l-31 -34l420 -508h-323l-451 542l459 539h-412l-57 -70h301l-262 -313h-668zM0 0zM0 0zM629 313l57 70zM639 -156l451 -542zM639 -156l459 539zM668 0l262 313z M993 -190l420 -508zM1024 -156zM1024 -156l571 -686zM1151 0l696 -842zM1151 0zM1413 -698zM1595 -842z" />
<glyph unicode="r" horiz-adv-x="952" d="M0 0l389 463l66 55l41 19l45 10h774l-205 -248l-332 2l76 88h-129l-319 -385zM0 0l389 463zM406 4l319 385zM778 301l76 88zM1110 299zM1315 547z" />
<glyph unicode="s" horiz-adv-x="1275" d="M29 23l18 -15l31 -8h981l41 10l39 15l47 26l26 19l21 16l27 27l26 24l23 25l151 178h-659l-117 -137h268l-59 -68h-365l-409 -2l-84 -86zM162 199h659l117 137h-268l57 70h365l407 2l88 86l6 24l-20 12l-29 11h-981l-41 -13l-39 -12l-47 -27l-26 -18l-21 -16l-27 -27 l-26 -27l-23 -22zM162 199zM162 199zM670 336l57 70zM684 203l117 137zM801 340zM801 340zM821 199zM821 199zM821 199l117 137zM893 135l59 68zM1309 162zM1460 340zM1460 340z" />
<glyph unicode="t" horiz-adv-x="1177" d="M287 334zM287 334l178 209h1071l-178 -211l-326 -4zM324 0zM324 0l276 330l432 -2l-274 -328h-434zM324 0zM465 543zM758 0zM1223 545zM1358 332zM1358 332z" />
<glyph unicode="u" horiz-adv-x="1140" d="M88 68l10 -31l27 -27l43 -10h874l455 545h-381l-332 -391h-129l324 391h-516l-367 -434zM463 545zM655 154zM784 154l713 391h-381z" />
<glyph unicode="v" horiz-adv-x="1112" d="M291 348l289 -348h430l458 543h-389l-299 -353l-73 89l219 264l-473 2zM1010 0l458 543z" />
<glyph unicode="w" horiz-adv-x="1794" d="M80 66l10 -31l27 -27l43 -10l495 2l961 -2l49 18l55 35l62 58l360 434h-516l-328 -391h-651l324 391h-516l-367 -434zM455 543zM655 0h385l449 543h-381zM1040 0l449 543zM2142 543zM2142 543z" />
<glyph unicode="x" horiz-adv-x="1202" d="M0 0l391 463l-225 272h332l229 -270l498 584h284l-635 -762l56 -8l49 -41l440 -547l-291 2l-61 24l-76 35l-71 62l-154 186h-766zM0 0l391 463zM391 463l375 -463zM727 465zM874 287l635 762zM979 238zM979 238l440 -547z" />
<glyph unicode="y" horiz-adv-x="792" d="M-891 -377h1266l944 1114h-295l-344 -413l-78 -2l344 415h-647l-111 -131h328l-516 -606h410l-58 -61l-782 2zM-891 -377l29 68l53 67l61 62l58 45l86 41l76 26l98 9zM692 0z" />
<glyph unicode="z" horiz-adv-x="1005" d="M0 0l516 606h-328l115 133h891l-420 -469h328l-197 -270h-905zM0 0zM0 0l516 606zM188 606l115 133zM774 270zM905 0zM905 0zM1102 270zM1194 739z" />
<glyph unicode="&#xd6;" horiz-adv-x="1026" d="M113 133l73 92l228 275l49 30l59 15h357l-152 -139l-203 -244h129l-116 -162q0 2 -304 0l-24 6l-35 14l-33 25l-22 35zM350 0l303 162l201 244h-127l152 139h297l55 -21l29 -37l10 -47l-15 -43l-284 -340l-45 -37l-43 -16l-52 -4h-481zM502 604l112 133h392l-17 -30 l-31 -39l-30 -27l-39 -25l-31 -12h-356zM1026 604l113 133h391l-17 -30l-30 -39l-31 -27l-39 -25l-31 -12h-356z" />
<glyph unicode="&#xf6;" horiz-adv-x="1026" d="M113 133l73 92l228 275l49 30l59 15h357l-152 -139l-203 -244h129l-116 -162q0 2 -304 0l-24 6l-35 14l-33 25l-22 35zM350 0l303 162l201 244h-127l152 139h297l55 -21l29 -37l10 -47l-15 -43l-284 -340l-45 -37l-43 -16l-52 -4h-481zM502 604l112 133h392l-17 -30 l-31 -39l-30 -27l-39 -25l-31 -12h-356zM1026 604l113 133h391l-17 -30l-30 -39l-31 -27l-39 -25l-31 -12h-356z" />
<glyph unicode="&#x2000;" horiz-adv-x="682" />
<glyph unicode="&#x2001;" horiz-adv-x="1365" />
<glyph unicode="&#x2002;" horiz-adv-x="682" />
<glyph unicode="&#x2003;" horiz-adv-x="1365" />
<glyph unicode="&#x2004;" horiz-adv-x="455" />
<glyph unicode="&#x2005;" horiz-adv-x="341" />
<glyph unicode="&#x2006;" horiz-adv-x="227" />
<glyph unicode="&#x2007;" horiz-adv-x="227" />
<glyph unicode="&#x2008;" horiz-adv-x="170" />
<glyph unicode="&#x2009;" horiz-adv-x="273" />
<glyph unicode="&#x200a;" horiz-adv-x="75" />
<glyph unicode="&#x202f;" horiz-adv-x="273" />
<glyph unicode="&#x205f;" horiz-adv-x="341" />
<glyph unicode="&#x25fc;" horiz-adv-x="1044" d="M0 0v1044h1044v-1044h-1044z" />
</font>
</defs>
</svg>
